<?xml version="1.0" encoding="UTF-8" standalone="no"?>
<svg
   xmlns:svg="http://www.w3.org/2000/svg"
   xmlns="http://www.w3.org/2000/svg"
   version="1.1"
   width="632.38965"
   height="130.55392"
   id="svg3276">
  <defs
     id="defs3278" />
  <g
     transform="translate(-62.94803,-420.65665)"
     id="layer1">
    <path
       d="m 62.94803,485.94678 c 0,-36.05711 29.23304,-65.29013 65.27699,-65.29013 36.04397,0 65.27698,29.23302 65.27698,65.29013 0,36.04397 -29.23301,65.26379 -65.27698,65.26379 -15.95368,0 -30.57677,-5.71747 -41.93274,-15.24226 10.63141,-17.61356 41.78783,-70.00641 41.78783,-70.00641 l 15.41353,25.82095 c 0,0 -8.10199,0.0394 -15.46625,0 -7.36424,-0.0394 -9.48524,1.54136 -12.69967,6.42889 -2.64798,4.07075 -8.90562,14.68898 -9.03737,14.88658 -0.77725,1.17248 -0.32948,2.30546 1.42281,2.30546 l 49.96881,0 25.39939,0 c 1.51502,0 2.38449,-1.05393 1.43597,-2.37132 l -55.14619,-90.16259 c -0.73775,-1.25154 -1.93659,-1.13296 -2.59526,0 l -56.17379,93.78542 c -4.88753,-9.15589 -7.65406,-19.61603 -7.65406,-30.70851"
       id="path34"
       style="fill:#eb1923;fill-opacity:1;fill-rule:nonzero;stroke:none" />
    <path
       d="m 695.33768,491.34809 0,-1.77846 c 0,-11.9883 -6.3235,-19.43159 -16.46744,-19.43159 -10.53916,0 -17.52139,7.70678 -17.52139,19.43159 0,11.3955 6.91631,18.57527 17.85072,18.57527 7.97024,0 13.89856,-4.28152 15.47941,-11.13198 l -8.29959,-0.39523 c -1.18564,2.7007 -3.55697,4.01806 -6.98219,4.01806 -5.20372,0 -8.43134,-3.35934 -8.69483,-9.28766 l 24.63531,0 z m -24.43771,-6.78454 c 1.25154,-4.87439 3.82047,-7.24569 7.90436,-7.24569 4.08395,0 6.38942,2.3713 7.11397,7.24569 l -15.01833,0 z m 0,0 m -14.01711,-2.50307 c -0.52695,-7.64092 -5.86241,-11.9883 -14.68892,-11.9883 -8.62897,0 -14.35966,4.67676 -14.35966,11.65893 0,2.56893 0.85633,4.94028 2.50307,6.52113 1.38328,1.44911 3.49111,2.43718 7.37743,3.62283 6.38936,1.91023 6.38936,1.91023 7.44326,2.37132 1.97612,0.85633 2.56893,1.515 2.56893,2.96416 0,2.3713 -2.10783,3.8863 -5.6648,3.8863 -4.47913,0 -6.52111,-1.77846 -6.85046,-5.99413 l -8.76065,0 c 0,8.56305 5.46717,13.04218 16.00634,13.04218 9.22178,0 14.62309,-4.34738 14.62309,-11.59307 0,-2.3713 -0.65867,-4.47913 -2.04195,-6.06001 -1.44916,-1.91023 -3.68871,-3.09588 -9.15589,-4.67676 -5.46723,-1.58088 -6.25764,-1.77849 -7.31157,-2.50307 -0.98804,-0.52695 -1.515,-1.515 -1.515,-2.56893 0,-2.10783 2.10784,-3.68871 5.00609,-3.68871 3.49111,0 5.33545,1.58088 5.79654,5.00613 l 9.02415,0 z m 0,0 m -35.29303,0 c -0.52695,-7.64092 -5.86241,-11.9883 -14.68895,-11.9883 -8.62894,0 -14.35963,4.67676 -14.35963,11.65893 0,2.56893 0.85633,4.94028 2.50307,6.52113 1.38325,1.44911 3.49109,2.43718 7.37743,3.62283 6.38936,1.91023 6.38936,1.91023 7.44326,2.37132 1.97612,0.85633 2.56893,1.515 2.56893,2.96416 0,2.3713 -2.10783,3.8863 -5.6648,3.8863 -4.47916,0 -6.52111,-1.77846 -6.85046,-5.99413 l -8.76071,0 c 0,8.56305 5.46723,13.04218 16.0064,13.04218 9.22175,0 14.62307,-4.34738 14.62307,-11.59307 0,-2.3713 -0.6587,-4.47913 -2.04193,-6.06001 -1.44916,-1.91023 -3.68871,-3.09588 -9.15594,-4.67676 -5.46717,-1.58088 -6.25762,-1.77849 -7.31155,-2.50307 -0.98804,-0.52695 -1.51502,-1.515 -1.51502,-2.56893 0,-2.10783 2.10783,-3.68871 5.00614,-3.68871 3.49111,0 5.33545,1.58088 5.79655,5.00613 l 9.02414,0 z m 0,0 m -57.50432,-0.19749 c 0.59281,-2.76653 2.63479,-4.14978 6.19176,-4.14978 3.95217,0 5.4672,1.51499 5.4672,5.4672 l 0,0.59281 c -9.81464,1.77848 -10.34159,1.84437 -13.63508,3.09588 -5.26957,1.97611 -8.16784,5.79655 -8.16784,10.80263 0,6.45527 4.87436,10.2757 13.10809,10.2757 4.80851,0 7.97025,-1.64674 9.94633,-4.87433 0,1.77846 0.0658,2.63478 0.4611,4.08389 l 8.49719,0 c -0.92216,-1.9102 -1.18565,-3.68871 -1.18565,-8.0361 l 0,-14.49134 c 0,-4.54505 -0.39523,-6.7846 -1.44913,-8.89243 -1.64674,-3.42526 -6.12587,-5.40132 -12.38352,-5.40132 -4.6109,0 -8.69482,1.18565 -11.46135,3.22763 -2.56893,1.97606 -3.68872,4.21566 -4.21567,8.29956 l 8.82657,0 z m 11.65896,10.20985 c 0,2.63478 -0.19777,4.14978 -0.72456,5.20371 -0.85632,2.10783 -3.22762,3.49108 -6.06004,3.49108 -3.16176,0 -5.4672,-1.77848 -5.4672,-4.28155 0,-1.515 0.79044,-2.96411 2.10784,-3.95215 1.64674,-1.1857 3.95217,-1.77851 10.14396,-2.50307 l 0,2.04198 z m 0,0 m -36.07031,-20.94662 -13.23984,16.86267 13.17399,19.1681 12.51523,0 -14.75484,-19.36571 13.50333,-16.66506 -11.19787,0 z m -22.72507,-14.88656 0,50.91733 9.35349,0 0,-50.91733 -9.35349,0 z m 0,0 m -41.19499,14.88656 c 1.0539,3.49111 1.11976,4.1498 1.11976,12.91049 l 0,23.12028 9.35352,0 0,-18.44355 c 0,-3.4252 0.13193,-4.94022 0.85633,-6.3235 0.98804,-2.3713 3.35934,-3.82043 5.99412,-3.82043 2.23958,0 4.01809,0.98804 4.94028,2.83241 0.65869,1.38325 0.92216,3.22763 0.92216,6.9822 l 0,18.77287 9.28763,0 0,-20.81484 c 0,-6.52111 -0.26333,-8.2996 -1.64674,-10.73678 -1.91023,-3.29351 -5.86241,-5.26957 -10.34156,-5.26957 -4.41327,0 -8.0361,1.84435 -10.67089,5.40132 0,-1.97612 -0.26333,-3.49111 -0.79047,-4.6109 l -9.02414,0 z m 0,0 m -5.17736,20.22201 0,-1.77846 c 0,-11.98831 -6.3235,-19.4316 -16.46749,-19.4316 -10.53916,0 -17.52134,7.70678 -17.52134,19.4316 0,11.39549 6.91632,18.57527 17.85072,18.57527 7.97024,0 13.89851,-4.28153 15.47939,-11.13198 l -8.29956,-0.39524 c -1.1857,2.7007 -3.557,4.01807 -6.98223,4.01807 -5.20368,0 -8.43133,-3.35934 -8.69479,-9.28766 l 24.6353,0 z m -24.43773,-6.78454 c 1.25156,-4.87439 3.82049,-7.24569 7.90439,-7.24569 4.08394,0 6.38936,2.3713 7.11396,7.24569 l -15.01835,0 z m 0,0 m -25.1359,-13.43747 0,36.03077 9.35352,0 0,-36.03077 -9.35352,0 z m 4.87437,-15.54525 c -3.29349,0 -5.59895,2.17369 -5.59895,5.53303 0,3.22762 2.10783,5.2696 5.46723,5.2696 3.22759,0 5.40131,-2.10784 5.40131,-5.46718 0,-3.16176 -2.17372,-5.33545 -5.26959,-5.33545 z m 0,0 m -23.17298,0.65869 0,50.91733 9.35346,0 0,-50.91733 -9.35346,0 z m 0,0 m -18.28548,14.88656 0,36.03077 9.35352,0 0,-36.03077 -9.35352,0 z m 4.87437,-15.54525 c -3.29349,0 -5.59892,2.17369 -5.59892,5.53303 0,3.22762 2.10783,5.2696 5.46717,5.2696 3.22762,0 5.40132,-2.10784 5.40132,-5.46718 0,-3.16176 -2.1737,-5.33545 -5.26957,-5.33545 z m 0,0 m -67.66148,15.54525 c 0.79047,2.17369 0.92219,3.42525 0.92219,8.49719 l 0,27.53358 9.35352,0 0,-20.02443 c 0,-2.43716 0.0658,-3.35934 0.46109,-4.41324 0.8563,-2.63482 3.16176,-4.14981 6.38936,-4.14981 2.23958,0 4.01809,0.79044 4.94022,2.30546 0.65872,1.11979 0.79047,2.43716 0.79047,6.25759 l 0,20.02443 9.35352,0 0,-20.41961 c 0,-5.53309 2.23955,-8.16787 6.78457,-8.16787 2.17372,0 3.95218,0.72458 4.8085,2.10783 0.79044,1.0539 0.98802,2.43718 0.98802,5.66481 l 0,20.81484 9.35352,0 0,-21.01245 c 0,-7.11394 -0.0658,-8.03613 -1.18565,-10.40742 -1.64674,-3.49111 -5.20371,-5.40132 -10.14393,-5.40132 -5.00614,0 -8.4972,1.77846 -11.65896,5.86241 -2.17372,-4.01806 -5.4672,-5.86241 -10.40742,-5.86241 -4.74265,0 -8.16788,1.77846 -11.00027,5.53304 l 0,-0.65867 c 0,-1.58089 -0.19776,-2.83245 -0.72455,-4.08395 l -9.0242,0 z m 0,0 m -28.45574,10.73677 c 0.59286,-2.76653 2.63478,-4.14978 6.19175,-4.14978 3.95221,0 5.46723,1.51499 5.46723,5.4672 l 0,0.59281 c -9.81461,1.77848 -10.34156,1.84437 -13.63504,3.09588 -5.2696,1.97611 -8.16788,5.79655 -8.16788,10.80263 0,6.45527 4.87434,10.2757 13.1081,10.2757 4.80848,0 7.97024,-1.64674 9.94633,-4.87433 0,1.77846 0.0658,2.63478 0.46109,4.08389 l 8.4972,0 c -0.92219,-1.9102 -1.18565,-3.68871 -1.18565,-8.0361 l 0,-14.49134 c 0,-4.54505 -0.39521,-6.7846 -1.44914,-8.89243 -1.64674,-3.42526 -6.1259,-5.40132 -12.38354,-5.40132 -4.61085,0 -8.6948,1.18565 -11.46133,3.22763 -2.56892,1.97606 -3.68869,4.21566 -4.21566,8.29956 l 8.82654,0 z m 11.65898,10.20985 c 0,2.63478 -0.19749,4.14978 -0.72458,5.20371 -0.8563,2.10783 -3.22762,3.49108 -6.06001,3.49108 -3.16177,0 -5.46723,-1.77848 -5.46723,-4.28155 0,-1.515 0.79047,-2.96411 2.10783,-3.95215 1.64674,-1.1857 3.95221,-1.77851 10.14399,-2.50307 l 0,2.04198 z m 0,0 m -46.82029,-15.28182 0,-11.98831 22.06641,0 0,-8.23373 -31.81511,0 0,50.58801 9.7487,0 0,-22.06635 20.09029,0 0,-8.29962 -20.09029,0 z m 0,0"
       id="path172"
       style="fill:#211e1e;fill-opacity:1;fill-rule:nonzero;stroke:none" />
  </g>
</svg>
